<svg xmlns="http://www.w3.org/2000/svg" width="38.188" height="36.392" viewBox="0 0 38.188 36.392"><path d="M23285.055,3838.907a.635.635,0,0,1-.512-.2c-.236-.28-.145-.787-.1-1.059l.008-.042q.035-.221.07-.427a7.168,7.168,0,0,0,.2-2.766c-.176-.571-.664-.884-1.74-1.118a20.481,20.481,0,0,1-11.424-5.227,13.907,13.907,0,0,1-4.543-10.056c0-8.546,8.564-15.5,19.09-15.5s19.1,6.953,19.1,15.5a12.167,12.167,0,0,1-1.01,4.908,16.72,16.72,0,0,1-3.078,4.631,47.714,47.714,0,0,1-8.246,6.95,50.538,50.538,0,0,1-6.764,4.134A2.873,2.873,0,0,1,23285.055,3838.907Zm-.355-25.239a.37.37,0,0,0-.375.374v8.323a.37.37,0,0,0,.375.374h1.338a.37.37,0,0,0,.375-.374v-4.937l3.814,5.147a.378.378,0,0,0,.3.152h1.334a.37.37,0,0,0,.375-.374v-8.323a.37.37,0,0,0-.367-.363h-1.354a.37.37,0,0,0-.373.374v4.942l-3.814-5.153a.355.355,0,0,0-.3-.164Zm9.217-.012a.375.375,0,0,0-.375.374v8.323a.375.375,0,0,0,.375.374h5.346a.37.37,0,0,0,.375-.374v-1.333a.37.37,0,0,0-.375-.375h-3.637v-1.4h3.637a.37.37,0,0,0,.375-.374v-1.345a.37.37,0,0,0-.375-.374h-3.637v-1.4h3.637a.369.369,0,0,0,.375-.38v-1.333a.392.392,0,0,0-.375-.374Zm-12.609,0a.37.37,0,0,0-.375.374v8.323a.37.37,0,0,0,.375.374h1.334a.37.37,0,0,0,.373-.374v-8.323a.378.378,0,0,0-.373-.374Zm-7.236,0a.37.37,0,0,0-.373.374v8.323a.345.345,0,0,0,.105.257.391.391,0,0,0,.256.105h5.354a.37.37,0,0,0,.373-.374v-1.333a.372.372,0,0,0-.361-.374h-3.645v-6.6a.37.37,0,0,0-.375-.374Z" transform="translate(-23267.012 -3802.515)" fill="#fff"/></svg>